Coordinates
version=1
nRows=11
nColumns=36
inDegrees=yes

Units are S.I. units (second, meters, Newtons, ...)
If the header above contains a line with 'inDegrees', this indicates whether rotational values are in degrees (yes) or radians (no).

endheader
time	pelvis_tilt	pelvis_list	pelvis_rotation	pelvis_tx	pelvis_ty	pelvis_tz	hip_flexion_r	hip_adduction_r	hip_rotation_r	knee_angle_r	knee_angle_r_beta	ankle_angle_r	subtalar_angle_r	mtp_angle_r	hip_flexion_l	hip_adduction_l	hip_rotation_l	knee_angle_l	knee_angle_l_beta	ankle_angle_l	subtalar_angle_l	mtp_angle_l	lumbar_extension	lumbar_bending	lumbar_rotation	arm_flex_r	arm_add_r	arm_rot_r	elbow_flex_r	pro_sup_r	arm_flex_l	arm_add_l	arm_rot_l	elbow_flex_l	pro_sup_l
      0.90000000	     -3.33702174	      8.89690164	      0.15963054	      0.79627049	      0.92043262	     -0.18713219	     -3.96945847	     -8.59212693	     -0.30640888	     50.13282633	      0.87498288	     -5.75856069	     -1.97588954	     -7.29328135	     11.81942820	     13.07120411	     -2.12868954	      2.11478961	      0.03691004	      1.14409262	     10.22686321	     -7.29328135	     -1.41451549	    -20.52542509	      9.52554263	     -5.85254545	     -5.17885680	      1.91645687	     38.50307495	     97.91959493	    -14.92186445	     -7.39264171	    -36.21572339	     37.45251209	    103.70405654
      0.91000000	     -3.32503974	      8.89382454	      0.17428386	      0.80403873	      0.92139652	     -0.18737242	     -2.33545741	     -8.79123472	     -0.07709840	     52.54399667	      0.91706574	     -4.60034047	     -1.17763528	     -7.29788301	     11.09565013	     13.05059484	     -2.14820188	      1.87202000	      0.03267291	      1.71104791	     10.94132819	     -7.29788301	     -1.58290447	    -20.91072739	      9.22103327	     -5.62499530	     -5.09119638	      2.49293273	     38.47600007	     97.99715965	    -14.56767709	     -7.42742363	    -36.15918670	     37.53144396	    103.69255436
      0.92000000	     -3.33940272	      8.86136443	      0.27165252	      0.81157046	      0.92233426	     -0.18779077	     -0.67100629	     -8.96898028	      0.08229661	     54.77813045	      0.95605873	     -2.97984473	      0.06584090	     -7.30683550	     10.49227377	     13.02353700	     -2.31314727	      1.76983441	      0.03088944	      2.29235224	     11.74388045	     -7.30683550	     -1.77435390	    -21.25611994	      8.78411919	     -5.35194420	     -5.10118405	      3.30348838	     38.36246975	     98.09584452	    -14.20582946	     -7.45582537	    -36.03522370	     37.66980285	    103.57688152
      0.93000000	     -3.30055356	      8.79667994	      0.45684291	      0.81892051	      0.92334320	     -0.18826031	      0.91779906	     -9.06468846	      0.12638114	     56.75876409	      0.99062731	     -2.05707105	     -0.07414325	     -7.30941757	      9.80929484	     13.00209330	     -2.08447558	      1.62130628	      0.02829713	      2.72704498	     12.08208959	     -7.30941757	     -2.09195826	    -21.55008972	      8.31360704	     -5.21590499	     -4.99416473	      3.55087363	     38.44898094	     98.12449205	    -13.72075922	     -7.54830413	    -35.89626667	     37.76852756	    103.52997378
      0.94000000	     -3.32145465	      8.70956874	      0.66599293	      0.82607207	      0.92425178	     -0.18873588	      2.59741469	     -9.12764581	      0.17609271	     58.58256057	      1.02245857	     -0.96446944	     -0.20725096	     -7.31233759	      9.26535757	     12.96108872	     -1.90075015	      1.57767405	      0.02753561	      3.15171076	     12.38125677	     -7.31233759	     -2.38291632	    -21.84191234	      7.81460652	     -5.13680391	     -4.91995620	      3.85698064	     38.54170167	     98.11152580	    -13.21901105	     -7.64687457	    -35.66827290	     37.92972572	    103.40694362
      0.95000000	     -3.15785213	      8.46684863	      0.88431216	      0.83301733	      0.92542646	     -0.18929765	      4.02857577	     -8.99207086	      0.22787752	     60.04753846	      1.04802725	     -0.42130714	     -0.46922113	     -7.31359631	      8.59753644	     12.77251824	     -1.80745609	      1.64348145	      0.02868416	      3.36447860	     12.51770741	     -7.31359631	     -2.93119923	    -21.88898344	      7.29507992	     -5.03135219	     -4.86027649	      3.99131040	     38.59037730	     98.07866547	    -12.58169806	     -7.71024449	    -35.48604423	     38.12163629	    103.33383379
      0.96000000	     -3.25116210	      8.44287972	      1.14694592	      0.83994427	      0.92614968	     -0.18982356	      5.76622940	     -9.10864834	      0.27310860	     61.49491707	      1.07328878	      0.88837692	     -1.24273345	     -7.31575917	      8.14560926	     12.83253200	     -1.49468944	      1.58296730	      0.02762799	      3.83275407	     12.69535712	     -7.31575917	     -3.14671597	    -22.23864866	      6.73988308	     -5.02986208	     -4.76707782	      4.37015932	     38.73597051	     98.11503943	    -12.06832543	     -7.92995309	    -35.14993076	     38.36652480	    103.26885108
      0.97000000	     -3.21636084	      8.27172208	      1.39103190	      0.84670458	      0.92706596	     -0.19032325	      7.33407678	     -9.00950141	      0.40142774	     62.62643463	      1.09303748	      1.74557383	     -2.00451582	     -7.31798603	      7.62020560	     12.72924019	     -1.32916736	      1.62384448	      0.02834143	      4.16991604	     12.78530374	     -7.31798603	     -3.50715228	    -22.39282464	      6.20416174	     -5.00398395	     -4.71690092	      4.68208409	     38.83205344	     98.09216866	    -11.46135970	     -8.09408483	    -34.80649879	     38.66549672	    103.14402310
      0.98000000	     -3.13053809	      8.06975587	      1.61415115	      0.85334650	      0.92800987	     -0.19082678	      8.83218058	     -8.86194029	      0.56676664	     63.51901911	      1.10861602	      2.50753102	     -2.91252619	     -7.31982003	      7.04843237	     12.58842819	     -1.15991884	      1.65858044	      0.02894769	      4.46746997	     12.86376653	     -7.31982003	     -3.93901638	    -22.49215348	      5.68425186	     -4.99243537	     -4.68576874	      4.94251808	     38.90676754	     98.07087879	    -10.82709835	     -8.22858156	    -34.47065259	     38.97043246	    103.04254893
      0.99000000	     -3.07096126	      7.86180853	      1.85821463	      0.85998987	      0.92889961	     -0.19126422	     10.30475103	     -8.67289507	      0.76290306	     64.17787957	      1.12011531	      3.33639175	     -4.15375955	     -7.32198769	      6.47381352	     12.43744273	     -0.98791889	      1.64223242	      0.02866236	      4.84259614	     12.95140764	     -7.32198769	     -4.29847741	    -22.57947284	      5.17511596	     -5.02633455	     -4.64361798	      5.25753065	     38.99962158	     98.05154733	    -10.20024651	     -8.41943490	    -34.05420181	     39.33282453	    102.92440239
      1.00000000	     -2.97625897	      7.62010219	      2.08567378	      0.86657270	      0.92981732	     -0.19162574	     11.70238191	     -8.40562493	      1.01398640	     64.57798040	      1.12709838	      4.04621721	     -5.44690059	     -7.32420631	      5.86238111	     12.23016056	     -0.84447749	      1.61766080	      0.02823351	      5.19735260	     13.07407086	     -7.32420631	     -4.69419804	    -22.62960861	      4.68765418	     -5.06773234	     -4.60758941	      5.54725745	     39.06816254	     98.02696071	     -9.55832046	     -8.60161169	    -33.61470943	     39.70190984	    102.80271324
